<svg width="237" height="151" viewBox="0 0 237 151" fill="none" xmlns="http://www.w3.org/2000/svg">
<circle cx="118.5" cy="75.4995" r="75.5" fill="url(#paint0_radial_70_260)"/>
<path d="M84.8215 99.7595V105H83.9815V100.62L81.2815 105H80.1415V99.7595H80.9815V104.09L83.6615 99.7595H84.8215ZM91.6547 100.13C92.1347 100.13 92.558 100.236 92.9247 100.45C93.2913 100.656 93.5747 100.95 93.7747 101.33C93.9747 101.703 94.0747 102.136 94.0747 102.63C94.0747 103.116 93.9713 103.553 93.7647 103.94C93.5647 104.32 93.2647 104.62 92.8647 104.84C92.4713 105.053 91.9913 105.16 91.4247 105.16C90.5513 105.16 89.918 104.896 89.5247 104.37C89.138 103.843 88.9447 103.08 88.9447 102.08V101.99C88.9447 101.043 89.0647 100.27 89.3047 99.6695C89.5447 99.0628 89.9147 98.6062 90.4147 98.2995C90.668 98.1395 90.9247 98.0262 91.1847 97.9595C91.4447 97.8928 91.8013 97.8262 92.2547 97.7595C92.4613 97.7328 92.6813 97.6995 92.9147 97.6595C93.148 97.6128 93.3647 97.5595 93.5647 97.4995V98.2495C93.2847 98.3228 92.8647 98.4062 92.3047 98.4995C91.9447 98.5528 91.6647 98.6062 91.4647 98.6595C91.2647 98.7062 91.0713 98.7895 90.8847 98.9095C90.558 99.1162 90.3047 99.3995 90.1247 99.7595C89.9447 100.113 89.8413 100.52 89.8147 100.98C90.0413 100.68 90.3147 100.463 90.6347 100.33C90.9547 100.196 91.2947 100.13 91.6547 100.13ZM93.1847 102.53C93.1847 102.003 93.0347 101.593 92.7347 101.3C92.4413 101.006 92.0447 100.86 91.5447 100.86C91.0313 100.86 90.618 101.013 90.3047 101.32C89.9913 101.62 89.8347 102.023 89.8347 102.53V102.73C89.8347 103.263 89.9847 103.68 90.2847 103.98C90.5847 104.28 90.9947 104.43 91.5147 104.43C92.0347 104.43 92.4413 104.28 92.7347 103.98C93.0347 103.68 93.1847 103.263 93.1847 102.73V102.53ZM97.3182 99.5995C98.0315 99.5995 98.5782 99.7662 98.9582 100.1C99.3449 100.426 99.5382 100.866 99.5382 101.42V105H98.7082V104.35C98.5682 104.596 98.3515 104.793 98.0582 104.94C97.7715 105.08 97.4049 105.15 96.9582 105.15C96.3382 105.15 95.8415 105.016 95.4682 104.75C95.1015 104.483 94.9182 104.086 94.9182 103.56C94.9182 103.04 95.1115 102.643 95.4982 102.37C95.8849 102.09 96.4415 101.95 97.1682 101.95H98.6782V101.44C98.6782 101.066 98.5549 100.786 98.3082 100.6C98.0682 100.413 97.7349 100.32 97.3082 100.32C96.9015 100.32 96.5949 100.4 96.3882 100.56C96.1815 100.72 96.0482 100.926 95.9882 101.18H95.0682C95.1415 100.673 95.3782 100.283 95.7782 100.01C96.1782 99.7362 96.6915 99.5995 97.3182 99.5995ZM97.1182 104.44C97.5782 104.44 97.9515 104.33 98.2382 104.11C98.5315 103.89 98.6782 103.586 98.6782 103.2V102.61H97.1882C96.7415 102.61 96.3982 102.69 96.1582 102.85C95.9249 103.003 95.8082 103.21 95.8082 103.47V103.58C95.8082 103.866 95.9215 104.083 96.1482 104.23C96.3815 104.37 96.7049 104.44 97.1182 104.44ZM103.186 102.34L102.056 103.52V105H101.196V99.7595H102.056V102.52L104.616 99.7595H105.636L103.756 101.74L105.786 105H104.836L103.186 102.34ZM113.87 99.7595V105H113.01V102.67H110.25V105H109.39V99.7595H110.25V101.93H113.01V99.7595H113.87ZM117.67 99.5995C118.383 99.5995 118.93 99.7662 119.31 100.1C119.696 100.426 119.89 100.866 119.89 101.42V105H119.06V104.35C118.92 104.596 118.703 104.793 118.41 104.94C118.123 105.08 117.756 105.15 117.31 105.15C116.69 105.15 116.193 105.016 115.82 104.75C115.453 104.483 115.27 104.086 115.27 103.56C115.27 103.04 115.463 102.643 115.85 102.37C116.236 102.09 116.793 101.95 117.52 101.95H119.03V101.44C119.03 101.066 118.906 100.786 118.66 100.6C118.42 100.413 118.086 100.32 117.66 100.32C117.253 100.32 116.946 100.4 116.74 100.56C116.533 100.72 116.4 100.926 116.34 101.18H115.42C115.493 100.673 115.73 100.283 116.13 100.01C116.53 99.7362 117.043 99.5995 117.67 99.5995ZM117.47 104.44C117.93 104.44 118.303 104.33 118.59 104.11C118.883 103.89 119.03 103.586 119.03 103.2V102.61H117.54C117.093 102.61 116.75 102.69 116.51 102.85C116.276 103.003 116.16 103.21 116.16 103.47V103.58C116.16 103.866 116.273 104.083 116.5 104.23C116.733 104.37 117.056 104.44 117.47 104.44ZM125.928 105H125.068V100.5H122.408V105H121.548V99.7595H125.928V105ZM129.9 105.15C129.374 105.15 128.917 105.033 128.53 104.8C128.144 104.56 127.847 104.233 127.64 103.82C127.434 103.4 127.33 102.92 127.33 102.38C127.33 101.84 127.434 101.36 127.64 100.94C127.847 100.52 128.144 100.193 128.53 99.9595C128.917 99.7195 129.374 99.5995 129.9 99.5995C130.42 99.5995 130.874 99.7195 131.26 99.9595C131.647 100.193 131.944 100.52 132.15 100.94C132.357 101.36 132.46 101.84 132.46 102.38C132.46 102.92 132.357 103.4 132.15 103.82C131.944 104.233 131.647 104.56 131.26 104.8C130.874 105.033 130.42 105.15 129.9 105.15ZM129.9 104.41C130.42 104.41 130.827 104.24 131.12 103.9C131.42 103.56 131.57 103.09 131.57 102.49V102.26C131.57 101.66 131.42 101.19 131.12 100.85C130.827 100.51 130.42 100.34 129.9 100.34C129.38 100.34 128.97 100.51 128.67 100.85C128.37 101.19 128.22 101.66 128.22 102.26V102.49C128.22 103.09 128.37 103.56 128.67 103.9C128.97 104.24 129.38 104.41 129.9 104.41ZM138.295 105H137.435V100.5H135.125V102.38C135.125 103.266 135.001 103.94 134.755 104.4C134.508 104.853 134.118 105.08 133.585 105.08C133.425 105.08 133.275 105.07 133.135 105.05V104.36C133.201 104.366 133.295 104.37 133.415 104.37C133.721 104.37 133.941 104.216 134.075 103.91C134.215 103.596 134.285 103.153 134.285 102.58V99.7595H138.295V105ZM144.534 99.7595V105H143.674V102.67H140.914V105H140.054V99.7595H140.914V101.93H143.674V99.7595H144.534ZM151.014 102.57H146.824C146.844 103.143 147 103.593 147.294 103.92C147.594 104.246 147.997 104.41 148.504 104.41C149.29 104.41 149.804 104.05 150.044 103.33H150.934C150.774 103.916 150.487 104.366 150.074 104.68C149.667 104.993 149.144 105.15 148.504 105.15C147.977 105.15 147.52 105.033 147.134 104.8C146.747 104.56 146.45 104.233 146.244 103.82C146.037 103.4 145.934 102.92 145.934 102.38C145.934 101.84 146.037 101.36 146.244 100.94C146.45 100.52 146.747 100.193 147.134 99.9595C147.52 99.7195 147.977 99.5995 148.504 99.5995C149.157 99.5995 149.694 99.7828 150.114 100.15C150.54 100.51 150.824 100.986 150.964 101.58C150.997 101.72 151.014 101.906 151.014 102.14V102.57ZM148.504 100.34C148.037 100.34 147.657 100.48 147.364 100.76C147.077 101.033 146.904 101.416 146.844 101.91H150.154C150.107 101.41 149.937 101.023 149.644 100.75C149.35 100.476 148.97 100.34 148.504 100.34ZM156.858 99.7595V105H155.998V102.67H153.238V105H152.378V99.7595H153.238V101.93H155.998V99.7595H156.858ZM103.201 113.76V119H102.341V116.67H99.5806V119H98.7206V113.76H99.5806V115.93H102.341V113.76H103.201ZM107.001 113.6C107.714 113.6 108.261 113.766 108.641 114.1C109.027 114.426 109.221 114.866 109.221 115.42V119H108.391V118.35C108.251 118.596 108.034 118.793 107.741 118.94C107.454 119.08 107.087 119.15 106.641 119.15C106.021 119.15 105.524 119.016 105.151 118.75C104.784 118.483 104.601 118.086 104.601 117.56C104.601 117.04 104.794 116.643 105.181 116.37C105.567 116.09 106.124 115.95 106.851 115.95H108.361V115.44C108.361 115.066 108.237 114.786 107.991 114.6C107.751 114.413 107.417 114.32 106.991 114.32C106.584 114.32 106.277 114.4 106.071 114.56C105.864 114.72 105.731 114.926 105.671 115.18H104.751C104.824 114.673 105.061 114.283 105.461 114.01C105.861 113.736 106.374 113.6 107.001 113.6ZM106.801 118.44C107.261 118.44 107.634 118.33 107.921 118.11C108.214 117.89 108.361 117.586 108.361 117.2V116.61H106.871C106.424 116.61 106.081 116.69 105.841 116.85C105.607 117.003 105.491 117.21 105.491 117.47V117.58C105.491 117.866 105.604 118.083 105.831 118.23C106.064 118.37 106.387 118.44 106.801 118.44ZM116.026 111.9V119H115.146V113.05L113.286 114.57V113.65L115.306 111.9H116.026ZM120.896 119.16C119.99 119.16 119.3 118.826 118.826 118.16C118.353 117.493 118.116 116.59 118.116 115.45C118.116 114.31 118.353 113.406 118.826 112.74C119.3 112.073 119.99 111.74 120.896 111.74C121.803 111.74 122.493 112.073 122.966 112.74C123.44 113.406 123.676 114.31 123.676 115.45C123.676 116.59 123.44 117.493 122.966 118.16C122.493 118.826 121.803 119.16 120.896 119.16ZM120.896 118.43C121.51 118.43 121.973 118.186 122.286 117.7C122.6 117.213 122.756 116.563 122.756 115.75V115.15C122.756 114.336 122.6 113.686 122.286 113.2C121.973 112.713 121.51 112.47 120.896 112.47C120.283 112.47 119.82 112.713 119.506 113.2C119.193 113.686 119.036 114.336 119.036 115.15V115.75C119.036 116.563 119.193 117.213 119.506 117.7C119.82 118.186 120.283 118.43 120.896 118.43ZM127.498 119.16C126.591 119.16 125.901 118.826 125.428 118.16C124.955 117.493 124.718 116.59 124.718 115.45C124.718 114.31 124.955 113.406 125.428 112.74C125.901 112.073 126.591 111.74 127.498 111.74C128.405 111.74 129.095 112.073 129.568 112.74C130.041 113.406 130.278 114.31 130.278 115.45C130.278 116.59 130.041 117.493 129.568 118.16C129.095 118.826 128.405 119.16 127.498 119.16ZM127.498 118.43C128.111 118.43 128.575 118.186 128.888 117.7C129.201 117.213 129.358 116.563 129.358 115.75V115.15C129.358 114.336 129.201 113.686 128.888 113.2C128.575 112.713 128.111 112.47 127.498 112.47C126.885 112.47 126.421 112.713 126.108 113.2C125.795 113.686 125.638 114.336 125.638 115.15V115.75C125.638 116.563 125.795 117.213 126.108 117.7C126.421 118.186 126.885 118.43 127.498 118.43ZM137.02 111.9H137.75L132.92 119H132.19L137.02 111.9ZM137.07 119.09C136.61 119.09 136.23 118.94 135.93 118.64C135.63 118.333 135.48 117.93 135.48 117.43C135.48 116.936 135.63 116.54 135.93 116.24C136.23 115.94 136.61 115.79 137.07 115.79C137.53 115.79 137.91 115.94 138.21 116.24C138.51 116.54 138.66 116.936 138.66 117.43C138.66 117.93 138.51 118.333 138.21 118.64C137.91 118.94 137.53 119.09 137.07 119.09ZM137.07 118.47C137.316 118.47 137.523 118.39 137.69 118.23C137.863 118.063 137.95 117.83 137.95 117.53V117.34C137.95 117.04 137.863 116.81 137.69 116.65C137.523 116.49 137.316 116.41 137.07 116.41C136.823 116.41 136.613 116.49 136.44 116.65C136.273 116.81 136.19 117.04 136.19 117.34V117.53C136.19 117.83 136.276 118.063 136.45 118.23C136.623 118.39 136.83 118.47 137.07 118.47ZM132.89 115.1C132.43 115.1 132.05 114.95 131.75 114.65C131.45 114.343 131.3 113.94 131.3 113.44C131.3 112.946 131.45 112.55 131.75 112.25C132.05 111.95 132.43 111.8 132.89 111.8C133.35 111.8 133.73 111.95 134.03 112.25C134.33 112.55 134.48 112.946 134.48 113.44C134.48 113.94 134.33 114.343 134.03 114.65C133.73 114.95 133.35 115.1 132.89 115.1ZM132.89 114.48C133.136 114.48 133.343 114.4 133.51 114.24C133.683 114.073 133.77 113.84 133.77 113.54V113.35C133.77 113.05 133.683 112.82 133.51 112.66C133.343 112.5 133.136 112.42 132.89 112.42C132.643 112.42 132.433 112.5 132.26 112.66C132.093 112.82 132.01 113.05 132.01 113.35V113.54C132.01 113.84 132.096 114.073 132.27 114.24C132.443 114.4 132.65 114.48 132.89 114.48Z" fill="black"/>
<path d="M107.526 48.7875C108.918 49.2675 109.998 50.0115 110.766 51.0195C111.534 52.0035 111.918 53.2395 111.918 54.7275C111.918 56.2155 111.534 57.5595 110.766 58.7595C109.998 59.9355 108.858 60.8715 107.346 61.5675C105.834 62.2395 103.998 62.5755 101.838 62.5755C99.4139 62.5755 97.4099 62.2035 95.8259 61.4595C94.2419 60.6915 93.0899 59.7075 92.3699 58.5075C91.6739 57.3075 91.3139 55.9995 91.2899 54.5835H96.9419C97.1579 55.8315 97.6859 56.8155 98.5259 57.5355C99.3659 58.2555 100.518 58.6155 101.982 58.6155C103.374 58.6155 104.466 58.2675 105.258 57.5715C106.074 56.8755 106.482 56.0115 106.482 54.9795V54.3675C106.482 53.3355 106.086 52.5435 105.294 51.9915C104.526 51.4395 103.47 51.1635 102.126 51.1635H99.0659V47.2395H102.054C103.254 47.2395 104.19 46.9395 104.862 46.3395C105.558 45.7395 105.906 44.8875 105.906 43.7835V43.1715C105.906 42.1875 105.534 41.3835 104.79 40.7595C104.07 40.1355 103.074 39.8235 101.802 39.8235C100.506 39.8235 99.4619 40.1475 98.6699 40.7955C97.9019 41.4435 97.3739 42.3675 97.0859 43.5675H91.5059C91.6259 42.2475 92.0459 41.0115 92.7659 39.8595C93.4859 38.6835 94.5899 37.7235 96.0779 36.9795C97.5659 36.2355 99.4499 35.8635 101.73 35.8635C103.794 35.8635 105.546 36.1875 106.986 36.8355C108.426 37.4595 109.506 38.3235 110.226 39.4275C110.97 40.5315 111.342 41.7795 111.342 43.1715C111.342 44.5395 110.994 45.6915 110.298 46.6275C109.626 47.5395 108.702 48.2595 107.526 48.7875ZM117.864 61.9995H115.56V56.7795H121.428V61.9995L118.764 67.3635H115.56L117.864 61.9995ZM136.308 45.2595C138.42 45.2595 140.196 45.6315 141.636 46.3755C143.076 47.1195 144.156 48.1395 144.876 49.4355C145.596 50.7075 145.956 52.1835 145.956 53.8635C145.956 55.4955 145.572 56.9715 144.804 58.2915C144.036 59.6115 142.872 60.6555 141.312 61.4235C139.776 62.1915 137.904 62.5755 135.696 62.5755C133.344 62.5755 131.376 62.2275 129.792 61.5315C128.232 60.8355 127.068 59.9235 126.3 58.7955C125.532 57.6675 125.136 56.4435 125.112 55.1235H130.836C131.028 56.2275 131.532 57.0915 132.348 57.7155C133.188 58.3155 134.328 58.6155 135.768 58.6155C137.184 58.6155 138.324 58.2195 139.188 57.4275C140.052 56.6355 140.484 55.5795 140.484 54.2595V53.5395C140.484 52.1955 140.052 51.1515 139.188 50.4075C138.324 49.6395 137.1 49.2555 135.516 49.2555C134.364 49.2555 133.392 49.4475 132.6 49.8315C131.808 50.2155 131.208 50.7195 130.8 51.3435H125.544L127.092 36.4395H144.48V40.5795H131.592L130.908 46.6635C132.42 45.7275 134.22 45.2595 136.308 45.2595ZM100.402 74.5515V81.9995H98.4838V76.3015L96.5658 81.9995H94.7598L92.7438 76.2035V81.9995H90.8258V74.5515H93.8918L95.6838 79.8155L97.4198 74.5515H100.402ZM109.934 74.5515V81.9995H108.002V76.7355L104.922 81.9995H102.556V74.5515H104.474V79.7455L107.512 74.5515H109.934ZM119.044 74.5515V81.9995H117.084V78.9335H114.046V81.9995H112.086V74.5515H114.046V77.4355H117.084V74.5515H119.044ZM127.911 74.5515L124.117 84.4075H122.213L123.179 81.8875L120.407 74.5515H122.437L124.187 79.4095L125.993 74.5515H127.911ZM135.011 76.0495H132.771V81.9995H130.811V76.0495H128.571V74.5515H135.011V76.0495ZM140.565 77.0855C141.125 77.0855 141.615 77.1928 142.035 77.4075C142.464 77.6128 142.796 77.9022 143.029 78.2755C143.272 78.6488 143.393 79.0735 143.393 79.5495C143.393 80.0162 143.272 80.4362 143.029 80.8095C142.796 81.1828 142.464 81.4768 142.035 81.6915C141.606 81.8968 141.116 81.9995 140.565 81.9995H136.449V74.5515H138.409V77.0855H140.565ZM146.179 74.5515V81.9995H144.219V74.5515H146.179ZM141.377 79.4375C141.377 79.1575 141.27 78.9475 141.055 78.8075C140.85 78.6582 140.57 78.5835 140.215 78.5835H138.409V80.5015H140.215C140.57 80.5015 140.85 80.4315 141.055 80.2915C141.27 80.1422 141.377 79.9275 141.377 79.6475V79.4375Z" fill="black"/>
<defs>
<radialGradient id="paint0_radial_70_260" cx="0" cy="0" r="1" gradientUnits="userSpaceOnUse" gradientTransform="translate(194 110.5) rotate(-147.418) scale(179.202 118.238)">
<stop offset="0.00312487" stop-color="white"/>
<stop offset="0.592292" stop-color="#FFE2A4"/>
<stop offset="1" stop-color="#FFD47C"/>
</radialGradient>
</defs>
</svg>
